<?xml version="1.0" encoding="UTF-8" standalone="no"?>
<svg width="560px" height="576px" viewBox="0 0 560 576" version="1.1" xmlns="http://www.w3.org/2000/svg" xmlns:xlink="http://www.w3.org/1999/xlink">
    <!-- Generator: Sketch 41.2 (35397) - http://www.bohemiancoding.com/sketch -->
    <title>Tree Rings</title>
    <desc>Created with Sketch.</desc>
    <defs></defs>
    <g id="GP-Camas" stroke="none" stroke-width="1" fill="none" fill-rule="evenodd">
        <g id="GP-Camas-1-_-USE-THIS-ONE" transform="translate(-305.000000, -2926.000000)">
            <g id="Family-Tree-Section" transform="translate(-54.000000, 2537.000000)">
                <g id="Tree-Rings" transform="translate(360.000000, 390.000000)">
                    <path d="M494.954978,110.474247 C492.984916,108.336895 491.038141,106.185294 489.091365,104.036067 C486.865148,101.580487 484.645917,99.1249061 482.398742,96.7001986 C471.593673,85.0302545 460.248349,74.0727612 448.681802,64.1269481 C444.734691,60.7333075 440.70142,57.4085371 436.675134,54.2310065 C391.037687,19.3304168 341.34601,0.110869083 296.75414,0.110869083 C281.114733,0.110869083 265.822299,2.40971032 251.496267,6.90290002 C250.585754,7.01689215 249.677569,7.13325911 248.906776,7.24250157 L247.865857,7.26862476 C240.931051,7.44198779 234.382807,7.60585148 227.091713,11.0422392 C226.248732,11.2227267 225.40575,11.4103387 224.565097,11.6003256 C200.202459,17.1313186 176.680475,26.0322039 154.646516,38.0559986 C153.868737,38.4787194 153.095616,38.9061899 152.38304,39.309912 C151.421296,39.7540063 150.440922,40.1838516 149.453562,40.6208214 C144.102258,42.9766587 138.569317,45.4156153 134.086611,50.4692663 L132.051345,51.8395467 C131.392329,52.283641 130.717013,52.7443592 130.011423,52.8868493 C128.55367,53.1433316 126.895651,52.4237563 125.270233,51.7421784 C123.854396,51.1508442 122.517734,50.5903829 121.253262,50.5903829 C120.291518,50.5903829 119.47648,50.9204851 118.838422,51.573565 L118.635827,51.7778009 L118.556652,52.0604064 C115.867028,61.6713677 109.789176,67.1216163 103.355037,72.8924677 C99.2193031,76.6043364 94.9415201,80.4396965 91.3786416,85.4553501 C90.7172968,86.1203042 90.0652667,86.7781338 89.4155653,87.4430879 C74.9195398,102.224067 62.0256453,118.660307 51.0482534,136.357585 C50.7012803,136.915671 50.3706079,137.450009 49.993362,137.917852 C45.4570957,137.620998 42.5602192,138.399944 40.7624792,140.311687 C38.4268144,142.79814 38.5851645,146.607377 38.7551581,150.639848 C38.8925501,153.94562 39.0345995,157.360634 37.8469733,160.139192 C37.4417832,160.956136 37.0412505,161.775454 36.6733192,162.544901 C21.2737663,190.458724 23.5838157,223.449945 25.8170187,255.279872 C25.8170187,261.694304 21.5904666,268.327221 18.4141488,272.76104 L18.2651133,273.053145 C16.9936547,276.746015 15.5172723,280.842607 13.7544625,285.566155 C5.76243683,298.333274 0.956043793,314.703018 0.567154433,330.574047 C0.890840786,338.104652 1.94107492,345.832368 3.71319949,353.62183 C5.1290362,358.354879 7.08279771,363.32541 9.86556888,369.260125 C15.7594549,381.813509 22.8572679,393.963169 29.7198843,405.713858 C31.1427071,408.14569 32.5538864,410.560898 33.9301356,412.940484 C37.1227542,418.687587 40.2804427,423.826732 43.5825092,428.645274 C47.0685414,433.732173 50.8805886,438.688456 54.8346852,443.274264 C57.7338903,447.565593 60.1394155,451.023354 62.412206,454.155763 C65.7608461,458.779568 69.2934518,463.441371 72.2508739,467.309979 C100.057627,517.760995 153.570666,542.884385 210.72343,566.252771 C216.063091,567.85341 221.577402,569.214192 227.105685,570.297117 C238.467309,572.519963 250.285354,573.64801 262.233805,573.64801 L262.236134,573.64801 C278.674277,573.64801 295.498982,571.529657 312.08849,567.383193 C316.710917,566.898726 321.193624,566.331141 325.415518,565.701809 C398.091255,554.810811 464.745028,513.685776 508.291322,452.870976 C508.831575,452.113404 509.3695,451.355831 509.984271,450.458143 C513.75906,443.067653 518.120675,436.218626 523.406776,429.388598 C523.872512,428.578779 524.33359,427.76896 524.794668,426.954391 C528.460009,420.442591 531.908782,413.705181 535.043184,406.929774 L535.357555,406.252946 L534.866204,405.694859 C531.480305,401.835751 535.448374,395.967531 538.640993,391.248732 C539.686569,389.702714 540.590097,388.365681 541.211854,387.066646 C542.115381,384.309461 543.10507,381.554651 544.097087,378.799842 C548.05817,367.778228 552.156644,356.383765 550.307673,345.096169 C548.540206,327.045041 549.255111,309.620869 550.191239,294.953882 C550.575471,288.98117 550.989976,283.630664 551.427768,278.788373 C569.998981,210.357474 548.360898,145.880677 494.954978,110.474247" id="Fill-4" stroke="#E4E0E0" stroke-width="2"></path>
                    <path d="M456.499693,113.063772 C448.946561,106.371249 440.790598,99.9793353 432.902806,93.799883 C429.292463,90.9723428 425.697633,88.1561038 422.175942,85.3263034 C417.836437,81.8342573 414.370153,78.8824048 411.262908,76.0345226 C396.863644,71.5140747 383.071644,65.7889274 369.736201,60.2491184 C342.642002,48.9977235 317.050451,38.3724107 289.220443,38.3724107 C278.407142,38.3724107 268.139051,39.9771697 257.851012,43.2725762 C253.646702,39.8257347 239.433606,42.6351931 236.120246,47.1895444 C214.733005,51.9450556 194.894954,59.2071552 176.238188,68.9781034 C175.571084,69.3284381 174.903979,69.6810331 174.239091,70.0358882 C172.060473,69.7443193 170.172191,69.6041854 168.478942,69.6041854 C159.773337,69.6041854 155.283125,73.4510866 153.530036,82.446778 C153.011423,82.8423172 152.459566,83.2220348 151.810192,83.6650387 C123.129126,103.290563 98.3598205,129.479779 80.1729089,159.402884 C79.7961389,160.026705 79.4437481,160.546557 79.0115707,160.98504 C73.133958,161.798721 67.05023,172.28616 68.0652928,176.567024 C68.3356807,177.706177 68.6215827,178.904096 68.8698076,180.160781 C68.5351472,180.850149 68.2115682,181.528216 67.8791241,182.228886 C52.8482157,216.2882 47.897014,252.989717 53.1850924,291.26209 C42.8150511,304.147627 37.5535682,318.985997 37.5535682,335.411044 C37.7907117,341.086467 38.8102071,346.784491 40.5810263,352.342382 C42.1967049,357.378161 44.2290469,362.660305 46.7955157,368.482642 C51.5694138,379.302334 57.2608577,389.841758 62.2851971,399.14258 C64.6654972,403.550016 66.9128197,407.713349 68.9407291,411.66196 C71.6845015,415.884059 74.7363388,419.902737 78.0098056,423.614025 C81.3785731,427.424762 85.0820009,431.020778 89.0225723,434.304884 C91.0061558,437.132424 93.0650933,439.946403 95.14841,442.672233 C97.6084967,445.890792 100.126207,449.041544 102.639485,452.160653 C122.426561,483.118941 152.776496,500.576911 182.126882,517.463044 C187.95352,520.814956 193.977408,524.28214 199.8794,527.828431 C205.553114,530.857131 211.002982,533.408924 216.539285,535.621683 C232.563093,542.033939 248.793017,545.284141 264.783581,545.284141 C278.868132,545.284141 293.110039,542.761731 307.11702,537.789238 C311.884269,537.253565 316.237071,536.683989 320.417002,536.046606 C328.291496,534.850947 336.81758,533.228106 346.502787,531.074113 C350.144158,530.167763 353.931806,529.112238 357.765995,527.932402 C408.827201,512.235146 454.152637,479.122865 485.397955,434.700423 C485.812402,434.110505 486.226849,433.518326 486.636863,432.921627 C491.592498,431.84124 495.085377,429.72567 497.026851,426.629163 C498.946162,423.56882 499.365042,419.545621 498.26576,414.663538 C501.771938,408.183476 504.783882,402.320455 507.52987,396.42353 C513.934961,391.595692 513.332129,386.799497 512.696053,381.727554 C512.059976,376.612667 511.341897,370.844576 517.41676,364.52951 C522.651647,350.40311 525.464124,334.382643 526.255341,315.172999 C526.472538,309.924759 526.547892,304.398511 526.485836,298.280085 C541.055755,230.123031 519.930037,167.883244 467.0692,123.101427 C463.904332,119.842184 460.449129,116.560338 456.499693,113.063772 Z" id="Fill-6" stroke="#E4E0E0" stroke-width="7"></path>
                    <path d="M416.370369,120.642973 C412.607254,120.61418 408.985306,119.291756 405.93811,116.893704 C402.846547,114.46069 400.656438,111.139204 399.765068,107.54007 C398.460279,106.363668 397.510426,105.713767 396.522255,105.03713 C391.234533,101.421543 384.654123,96.919541 378.03943,95.2330898 C359.381154,95.2042967 345.274513,87.6646259 330.339019,79.6807193 C325.390099,77.0358702 320.273794,74.3005287 314.949773,71.834608 C309.823385,69.5085393 304.221062,68.3794397 297.828203,68.3794397 C289.376319,68.3794397 280.69655,70.3661615 272.301132,72.2891271 C268.417017,73.177599 264.40585,74.0948639 260.529801,74.7838409 C256.805003,71.1518009 253.525889,69.5949185 250.470627,69.9897949 C247.197563,70.4196343 244.337918,73.0768232 241.738425,78.1094404 C236.142317,79.3476361 230.660622,80.7867507 225.285656,82.4271156 C212.706737,86.2660263 200.712362,91.2071647 189.204044,97.2547746 C188.599041,97.573555 188.022272,97.8758822 187.413237,98.081547 C184.581825,97.8779388 173.032328,100.181384 170.582068,108.31337 C170.021433,108.685623 169.462814,109.061989 168.904195,109.440413 C143.165373,126.928089 121.088833,150.417063 105.062318,177.369432 C104.753767,177.889764 104.433115,178.426549 104.031797,178.854332 C100.633845,179.547393 94.3487917,186.294509 94.6986258,190.675943 C94.833743,192.358281 94.9849936,194.256567 94.9668435,196.453067 C94.6582923,197.113251 94.3517577,197.775492 94.0452231,198.456242 C84.9540528,219.868002 80.015216,242.435598 78.5127932,269.383854 C77.5205892,275.965127 76.3206676,282.57108 75.26393,288.249484 C74.8081615,293.084663 73.7433571,297.930125 72.6160359,303.059405 C70.7566616,311.52251 68.8307371,320.27766 69.7826077,329.078056 C69.8007577,334.215562 70.4138269,338.76898 71.6318985,342.878162 C72.3579015,347.324635 73.2996886,351.723805 74.4330599,355.946102 C78.0308079,369.351333 83.7097644,381.664483 91.2924619,392.521527 C93.5370211,395.968468 96.0881148,399.302294 98.8731428,402.432512 C101.710604,405.622373 104.882834,408.701175 108.301098,411.582538 C110.719091,413.620676 113.348835,415.654701 116.127813,417.629083 C117.345885,420.537183 119.856645,422.949631 122.357322,425.351795 C124.730948,427.632618 127.185241,429.991593 128.328696,432.671405 C148.703162,457.653505 173.405413,475.957671 211.066816,494.1117 C215.945153,496.454222 220.855756,498.521153 225.663509,500.250794 C239.87905,505.36362 253.75579,507.848051 268.088299,507.848051 C279.80518,507.848051 291.907246,506.101957 304.053678,502.655015 C309.000582,502.336235 313.602634,501.914622 318.111919,501.365497 C328.20336,500.135622 337.33083,498.331942 346.012616,495.849568 C346.778952,495.629507 347.541255,495.395049 348.307592,495.154421 C353.314996,488.754133 355.493004,486.076378 359.728022,486.076378 C361.621679,486.076378 364.063873,486.594653 367.639437,487.754602 C369.022876,487.411142 369.742829,487.096475 370.460765,486.779751 C387.205217,479.328516 402.977631,469.658158 417.348456,458.027815 L418.383011,457.17225 C426.822795,453.293412 429.587656,445.613889 432.513851,437.488074 C433.052304,435.994947 433.596806,434.483311 434.185675,432.969619 C434.538593,432.805087 435.393663,433.210246 436.204366,433.592783 C437.281271,434.104888 438.505392,434.682806 439.862615,434.682806 C441.207737,434.682806 442.421775,434.096662 443.484563,432.926429 C444.000832,432.336171 444.513067,431.74797 445.023286,431.155655 C450.034723,425.327115 454.788025,419.161285 459.150093,412.824754 C459.557462,412.232439 459.855929,411.800543 460.166497,411.383043 C470.889158,411.675087 471.032342,404.896376 471.240059,397.081115 C471.276359,395.717557 471.314676,394.27996 471.401393,392.786834 C471.740194,392.161613 472.072946,391.538449 472.401664,390.911171 C476.404763,383.311858 479.990411,375.391707 483.063824,367.354328 L483.582109,365.922901 C484.45533,362.570565 485.776252,359.08249 487.054823,355.713701 C487.577142,354.325464 488.105511,352.933113 488.593546,351.573669 C492.01786,343.075601 490.682822,335.743651 489.394166,328.65233 C488.714547,324.917457 488.012744,321.055073 488.008711,317.065176 C488.151895,316.727886 489.505083,316.267197 490.231086,316.020399 C491.886777,315.458934 493.762284,314.821373 493.762284,313.139036 C493.762284,309.35686 493.885301,305.385473 494.153519,300.636674 C494.369303,296.776346 494.661721,292.774109 495.042873,288.399619 C514.227501,228.954272 479.107108,178.839935 446.354291,147.373224 C446.354291,147.373224 423.279497,122.403464 416.370369,120.642973 Z" id="Fill-8" stroke="#FFFFFF"></path>
                    <path d="M442.206634,396.592257 C434.189729,399.960569 429.063313,407.252452 424.105042,414.30345 C421.81507,417.561525 419.651206,420.637916 417.315194,423.140673 C415.207379,425.382131 412.987467,427.584803 410.527348,429.867089 C393.943063,445.265374 375.006753,457.309638 354.242868,465.669174 C351.252293,466.8736 348.201665,468.006578 345.139027,469.055858 C331.925646,474.21856 320.878131,477.61341 310.373082,479.736466 C306.35362,480.548944 302.3822,481.171571 298.412781,481.616596 C294.529436,482.731201 290.630077,483.272172 286.494515,483.272172 C277.853072,483.272172 269.696046,480.906189 261.06261,478.40139 C257.055158,477.239833 252.913591,476.037448 248.687952,475.080031 C246.572129,475.057576 244.792596,476.221174 243.075117,477.348027 C241.085403,478.652482 239.205784,479.811998 237.62242,479.101591 C230.129967,471.460628 224.164829,465.428289 212.0564,462.651984 C207.058095,460.359491 202.17589,457.868982 197.537895,455.241699 C196.861312,454.857916 196.184729,454.472091 195.514152,454.080142 C192.885888,454.329193 191.178417,454.504754 189.657107,454.504754 C187.473226,454.504754 185.737731,454.139343 184.356541,453.388107 C181.866397,452.032617 180.471195,449.291016 180.088865,445.010199 C179.570419,444.09361 179.408279,443.88947 179.296183,443.61184 C177.080274,441.801117 175.178636,440.341516 173.166903,438.757389 C155.775924,429.709901 143.137038,414.946491 130.91451,400.670976 C124.366871,393.02593 117.599042,385.121627 110.238702,378.297224 C108.275011,376.517123 106.685642,374.555337 105.382519,372.303672 C100.80858,357.378991 101.86549,341.978665 102.886369,327.084605 C103.667042,315.730335 104.471735,303.990239 102.786283,292.515526 C103.645023,290.802791 103.797154,290.498622 103.963297,290.19037 C102.85234,283.433334 103.000467,277.258097 103.264695,272.522047 C103.306731,269.774322 103.438845,266.959231 103.663038,264.154346 C105.282433,244.742667 111.289607,225.963822 121.554448,208.275085 C122.84556,205.58656 124.236759,202.871497 125.686007,200.205428 C125.96825,199.686912 126.256498,199.156148 126.6068,198.702957 C136.048933,197.708795 136.207069,193.401439 136.40524,187.967231 C136.471297,186.207543 136.541357,184.223302 136.919683,182.075748 C137.330036,181.485783 137.74039,180.908067 138.154747,180.332392 C155.950074,155.545705 179.646484,135.395039 206.681771,122.058568 C207.188207,121.809517 207.696645,121.558425 208.209086,121.313457 C208.963736,121.339995 215.177088,123.244622 217.557138,123.244622 C222.303226,123.24258 225.798236,119.984505 228.530589,113.000873 C229.127103,112.796733 229.725619,112.596676 230.326136,112.400701 C239.265836,109.467208 248.509798,107.223709 257.803803,105.727362 C260.822403,105.241509 264.017155,104.806691 267.450112,104.406576 C273.933696,102.626475 280.395262,101.758879 287.201124,101.758879 C307.971013,101.758879 327.86615,110.165367 347.10472,118.292184 C358.974944,123.307905 371.249517,128.493063 383.570129,131.626613 C386.156356,133.149498 388.836665,134.913268 391.995386,137.162892 C401.371461,143.846438 410.187054,151.466986 418.195953,159.812232 C420.652068,162.370107 423.20827,165.177033 426.008682,168.394281 C467.028013,196.369636 483.69637,242.064349 470.781246,290.790542 C470.703178,295.924665 470.53103,300.407581 470.222765,304.745557 C468.659418,326.882506 463.328827,348.319255 454.375115,368.459714 C453.246142,370.999217 452.049111,373.542802 450.814047,376.01698 C448.05367,378.089001 447.451151,381.116399 446.868649,384.043767 C446.712515,384.8195 446.55638,385.603397 446.35821,386.37913 C446.282144,388.910467 447.010772,391.233581 448.676206,394.020093 C446.218089,394.873398 444.130291,395.669544 442.206634,396.592257 Z" id="Path" stroke="#E4E0E0" stroke-width="2"></path>
                    <ellipse id="Oval-2-Copy-2" stroke-opacity="0.962381114" stroke="#EAE4E4" stroke-width="7" fill="#B68E21" cx="114" cy="112.758879" rx="10" ry="10"></ellipse>
                    <ellipse id="Oval-2-Copy-3" stroke="#FFFFFF" stroke-width="2" fill="#B68E21" cx="372" cy="16" rx="10" ry="10"></ellipse>
                    <ellipse id="Oval-2-Copy-4" stroke="#FFFFFF" stroke-width="2" fill="#B68E21" cx="474" cy="258" rx="10" ry="10"></ellipse>
                    <ellipse id="Oval-2-Copy-5" stroke="#FFFFFF" stroke-width="2" fill="#B68E21" cx="184" cy="480" rx="10" ry="10"></ellipse>
                </g>
            </g>
        </g>
    </g>
</svg>